<mxfile host="app.diagrams.net" modified="2021-12-13T04:42:22.562Z" agent="5.0 (Windows NT 10.0; Win64; x64) AppleWebKit/537.36 (KHTML, like Gecko) Chrome/96.0.4664.93 Safari/537.36" etag="Cdvk-XUGFgelUL7udcLj" version="15.9.4" type="github">
  <diagram id="C5RBs43oDa-KdzZeNtuy" name="Page-1">
    <mxGraphModel dx="839" dy="1537" grid="1" gridSize="10" guides="1" tooltips="1" connect="1" arrows="1" fold="1" page="1" pageScale="1" pageWidth="827" pageHeight="1169" math="0" shadow="0">
      <root>
        <mxCell id="WIyWlLk6GJQsqaUBKTNV-0" />
        <mxCell id="WIyWlLk6GJQsqaUBKTNV-1" parent="WIyWlLk6GJQsqaUBKTNV-0" />
        <mxCell id="WIyWlLk6GJQsqaUBKTNV-2" value="" style="rounded=0;html=1;jettySize=auto;orthogonalLoop=1;fontSize=11;endArrow=block;endFill=0;endSize=8;strokeWidth=1;shadow=0;labelBackgroundColor=none;edgeStyle=orthogonalEdgeStyle;entryX=0.5;entryY=0;entryDx=0;entryDy=0;" parent="WIyWlLk6GJQsqaUBKTNV-1" target="HcMw4TT2Zi-3RrbzBeOb-0" edge="1">
          <mxGeometry relative="1" as="geometry">
            <mxPoint x="220" y="120" as="sourcePoint" />
            <mxPoint x="220" y="170" as="targetPoint" />
          </mxGeometry>
        </mxCell>
        <mxCell id="HcMw4TT2Zi-3RrbzBeOb-4" value="" style="edgeStyle=orthogonalEdgeStyle;rounded=0;orthogonalLoop=1;jettySize=auto;html=1;" edge="1" parent="WIyWlLk6GJQsqaUBKTNV-1" source="HcMw4TT2Zi-3RrbzBeOb-0" target="HcMw4TT2Zi-3RrbzBeOb-1">
          <mxGeometry relative="1" as="geometry" />
        </mxCell>
        <mxCell id="HcMw4TT2Zi-3RrbzBeOb-0" value="Sort array using Bubble Sort" style="rounded=1;whiteSpace=wrap;html=1;fontSize=12;glass=0;strokeWidth=1;shadow=0;" vertex="1" parent="WIyWlLk6GJQsqaUBKTNV-1">
          <mxGeometry x="160" y="190" width="120" height="40" as="geometry" />
        </mxCell>
        <mxCell id="HcMw4TT2Zi-3RrbzBeOb-9" value="" style="edgeStyle=orthogonalEdgeStyle;rounded=0;orthogonalLoop=1;jettySize=auto;html=1;" edge="1" parent="WIyWlLk6GJQsqaUBKTNV-1" source="HcMw4TT2Zi-3RrbzBeOb-1" target="HcMw4TT2Zi-3RrbzBeOb-6">
          <mxGeometry relative="1" as="geometry" />
        </mxCell>
        <mxCell id="HcMw4TT2Zi-3RrbzBeOb-1" value="Sort array using Bubble Sort" style="rounded=1;whiteSpace=wrap;html=1;fontSize=12;glass=0;strokeWidth=1;shadow=0;" vertex="1" parent="WIyWlLk6GJQsqaUBKTNV-1">
          <mxGeometry x="160" y="290" width="120" height="40" as="geometry" />
        </mxCell>
        <mxCell id="HcMw4TT2Zi-3RrbzBeOb-15" style="edgeStyle=orthogonalEdgeStyle;rounded=0;orthogonalLoop=1;jettySize=auto;html=1;entryX=0.5;entryY=0;entryDx=0;entryDy=0;" edge="1" parent="WIyWlLk6GJQsqaUBKTNV-1" source="HcMw4TT2Zi-3RrbzBeOb-6" target="HcMw4TT2Zi-3RrbzBeOb-10">
          <mxGeometry relative="1" as="geometry" />
        </mxCell>
        <mxCell id="HcMw4TT2Zi-3RrbzBeOb-6" value="Take input a, i=0" style="rounded=0;whiteSpace=wrap;html=1;" vertex="1" parent="WIyWlLk6GJQsqaUBKTNV-1">
          <mxGeometry x="160" y="380" width="120" height="60" as="geometry" />
        </mxCell>
        <mxCell id="HcMw4TT2Zi-3RrbzBeOb-8" value="" style="edgeStyle=orthogonalEdgeStyle;rounded=0;orthogonalLoop=1;jettySize=auto;html=1;" edge="1" parent="WIyWlLk6GJQsqaUBKTNV-1" source="HcMw4TT2Zi-3RrbzBeOb-7" target="HcMw4TT2Zi-3RrbzBeOb-0">
          <mxGeometry relative="1" as="geometry" />
        </mxCell>
        <mxCell id="HcMw4TT2Zi-3RrbzBeOb-23" value="" style="edgeStyle=orthogonalEdgeStyle;rounded=0;orthogonalLoop=1;jettySize=auto;html=1;" edge="1" parent="WIyWlLk6GJQsqaUBKTNV-1" source="HcMw4TT2Zi-3RrbzBeOb-7" target="HcMw4TT2Zi-3RrbzBeOb-22">
          <mxGeometry relative="1" as="geometry" />
        </mxCell>
        <mxCell id="HcMw4TT2Zi-3RrbzBeOb-7" value="Take input array" style="rounded=0;whiteSpace=wrap;html=1;" vertex="1" parent="WIyWlLk6GJQsqaUBKTNV-1">
          <mxGeometry x="160" y="50" width="120" height="60" as="geometry" />
        </mxCell>
        <mxCell id="HcMw4TT2Zi-3RrbzBeOb-12" value="" style="edgeStyle=orthogonalEdgeStyle;rounded=0;orthogonalLoop=1;jettySize=auto;html=1;" edge="1" parent="WIyWlLk6GJQsqaUBKTNV-1" source="HcMw4TT2Zi-3RrbzBeOb-10" target="HcMw4TT2Zi-3RrbzBeOb-11">
          <mxGeometry relative="1" as="geometry" />
        </mxCell>
        <mxCell id="HcMw4TT2Zi-3RrbzBeOb-19" value="" style="edgeStyle=orthogonalEdgeStyle;rounded=0;orthogonalLoop=1;jettySize=auto;html=1;" edge="1" parent="WIyWlLk6GJQsqaUBKTNV-1" source="HcMw4TT2Zi-3RrbzBeOb-10" target="HcMw4TT2Zi-3RrbzBeOb-18">
          <mxGeometry relative="1" as="geometry" />
        </mxCell>
        <mxCell id="HcMw4TT2Zi-3RrbzBeOb-10" value="a is less than inputarray[i]?" style="rhombus;whiteSpace=wrap;html=1;" vertex="1" parent="WIyWlLk6GJQsqaUBKTNV-1">
          <mxGeometry x="155" y="540" width="130" height="120" as="geometry" />
        </mxCell>
        <mxCell id="HcMw4TT2Zi-3RrbzBeOb-14" style="edgeStyle=orthogonalEdgeStyle;rounded=0;orthogonalLoop=1;jettySize=auto;html=1;entryX=0.5;entryY=0;entryDx=0;entryDy=0;exitX=0.5;exitY=0;exitDx=0;exitDy=0;" edge="1" parent="WIyWlLk6GJQsqaUBKTNV-1" source="HcMw4TT2Zi-3RrbzBeOb-11" target="HcMw4TT2Zi-3RrbzBeOb-10">
          <mxGeometry relative="1" as="geometry">
            <mxPoint x="460" y="510" as="sourcePoint" />
            <Array as="points">
              <mxPoint x="455" y="470" />
              <mxPoint x="220" y="470" />
            </Array>
          </mxGeometry>
        </mxCell>
        <mxCell id="HcMw4TT2Zi-3RrbzBeOb-11" value="i++" style="rounded=1;whiteSpace=wrap;html=1;" vertex="1" parent="WIyWlLk6GJQsqaUBKTNV-1">
          <mxGeometry x="395" y="570" width="120" height="60" as="geometry" />
        </mxCell>
        <mxCell id="HcMw4TT2Zi-3RrbzBeOb-16" value="no?" style="text;html=1;strokeColor=none;fillColor=none;align=center;verticalAlign=middle;whiteSpace=wrap;rounded=0;" vertex="1" parent="WIyWlLk6GJQsqaUBKTNV-1">
          <mxGeometry x="335" y="555" width="60" height="30" as="geometry" />
        </mxCell>
        <mxCell id="HcMw4TT2Zi-3RrbzBeOb-21" value="" style="edgeStyle=orthogonalEdgeStyle;rounded=0;orthogonalLoop=1;jettySize=auto;html=1;" edge="1" parent="WIyWlLk6GJQsqaUBKTNV-1" source="HcMw4TT2Zi-3RrbzBeOb-18" target="HcMw4TT2Zi-3RrbzBeOb-20">
          <mxGeometry relative="1" as="geometry" />
        </mxCell>
        <mxCell id="HcMw4TT2Zi-3RrbzBeOb-18" value="a is in the correct position" style="rounded=1;whiteSpace=wrap;html=1;" vertex="1" parent="WIyWlLk6GJQsqaUBKTNV-1">
          <mxGeometry x="160" y="770" width="120" height="60" as="geometry" />
        </mxCell>
        <mxCell id="HcMw4TT2Zi-3RrbzBeOb-20" value="end" style="ellipse;whiteSpace=wrap;html=1;rounded=1;" vertex="1" parent="WIyWlLk6GJQsqaUBKTNV-1">
          <mxGeometry x="160" y="910" width="120" height="60" as="geometry" />
        </mxCell>
        <mxCell id="HcMw4TT2Zi-3RrbzBeOb-22" value="start" style="ellipse;whiteSpace=wrap;html=1;rounded=0;" vertex="1" parent="WIyWlLk6GJQsqaUBKTNV-1">
          <mxGeometry x="160" y="-90" width="120" height="60" as="geometry" />
        </mxCell>
      </root>
    </mxGraphModel>
  </diagram>
</mxfile>
